<svg width="1311" height="528" viewBox="0 0 1311 528" fill="none" xmlns="http://www.w3.org/2000/svg">
<g clip-path="url(#clip0_612_2)">
<path d="M132.422 107.438C151.042 107.438 168.164 110.042 183.789 115.25C199.414 120.458 213.477 123.844 225.977 125.406C219.076 149.625 218.815 175.732 225.195 203.727C218.555 209.326 210.938 212.581 202.344 213.492C201.302 211.018 199.414 205.875 196.68 198.062C194.076 190.12 191.536 183.609 189.062 178.531C186.719 173.453 183.398 167.659 179.102 161.148C174.935 154.638 169.336 149.495 162.305 145.719C155.404 141.812 147.461 139.143 138.477 137.711C125.326 138.883 115.169 142.919 108.008 149.82C100.846 156.721 97.2656 165.641 97.2656 176.578C97.2656 187.776 100.13 197.021 105.859 204.312C111.589 211.474 119.01 216.878 128.125 220.523C137.37 224.039 147.526 227.164 158.594 229.898C169.661 232.503 180.664 235.758 191.602 239.664C202.539 243.44 212.565 248.453 221.68 254.703C230.924 260.823 238.411 270.003 244.141 282.242C249.87 294.482 252.734 309.391 252.734 326.969C252.734 348.323 246.549 366.682 234.18 382.047C221.81 397.411 207.227 408.414 190.43 415.055C173.633 421.695 156.445 425.016 138.867 425.016C100.195 425.016 61.9141 416.487 24.0234 399.43C24.8047 382.633 25.1953 372.346 25.1953 368.57C25.1953 347.477 23.1771 324.82 19.1406 300.602C30.8594 295.003 43.9453 294.742 58.3984 299.82C63.2161 329.378 72.526 352.034 86.3281 367.789C100.26 383.544 115.495 392.333 132.031 394.156C147.526 393.115 159.44 388.102 167.773 379.117C176.237 370.003 180.469 358.479 180.469 344.547C180.469 332.828 177.734 322.932 172.266 314.859C166.797 306.656 159.57 300.341 150.586 295.914C141.602 291.357 131.836 287.255 121.289 283.609C110.872 279.964 100.326 276.122 89.6484 272.086C78.9714 267.919 69.1406 262.971 60.1562 257.242C51.3021 251.513 44.1406 243.505 38.6719 233.219C33.2031 222.932 30.4688 210.432 30.4688 195.719C30.4688 182.438 32.5521 170.523 36.7188 159.977C41.0156 149.43 46.5495 140.966 53.3203 134.586C60.2214 128.206 68.2292 122.867 77.3438 118.57C86.5885 114.273 95.7031 111.344 104.688 109.781C113.802 108.219 123.047 107.438 132.422 107.438ZM132.422 115.445C121.484 115.445 110.872 116.747 100.586 119.352C90.2995 121.826 80.2734 125.927 70.5078 131.656C60.8724 137.385 53.125 145.784 47.2656 156.852C41.4062 167.919 38.4766 180.875 38.4766 195.719C38.4766 208.87 41.2109 220.198 46.6797 229.703C52.1484 239.078 59.3099 246.37 68.1641 251.578C77.1484 256.786 86.9792 261.409 97.6562 265.445C108.333 269.352 118.88 273.323 129.297 277.359C139.844 281.396 149.609 285.953 158.594 291.031C167.578 296.109 174.805 303.206 180.273 312.32C185.742 321.305 188.477 332.047 188.477 344.547C188.477 361.865 182.943 375.862 171.875 386.539C160.807 397.216 145.117 402.555 124.805 402.555C105.273 402.555 87.1094 394.417 70.3125 378.141C53.5156 361.865 42.4479 337.516 37.1094 305.094C34.5052 303.401 31.4453 303.401 27.9297 305.094C31.4453 325.536 33.2031 346.695 33.2031 368.57C33.2031 374.69 32.9427 383.349 32.4219 394.547C64.7135 409.521 95.5078 417.008 124.805 417.008C149.023 417.008 171.419 409.846 191.992 395.523C212.565 381.07 222.852 360.888 222.852 334.977C222.852 320.263 219.987 307.828 214.258 297.672C208.529 287.385 201.042 279.378 191.797 273.648C182.552 267.919 172.396 262.971 161.328 258.805C150.26 254.638 139.258 250.732 128.32 247.086C117.383 243.31 107.292 239.143 98.0469 234.586C88.9323 230.029 81.5104 223.583 75.7812 215.25C70.0521 206.786 67.1875 196.565 67.1875 184.586C67.1875 167.789 72.8516 154.378 84.1797 144.352C95.5078 134.326 111.589 129.312 132.422 129.312C168.62 129.312 193.555 154.378 207.227 204.508C211.263 205.159 214.062 204.247 215.625 201.773C211.328 170.003 201.888 147.672 187.305 134.781C172.852 121.891 154.557 115.445 132.422 115.445ZM515.82 382.242C515.82 391.878 500.781 398.128 470.703 400.992C469.661 403.076 469.661 406.135 470.703 410.172C492.839 409.391 515.495 409 538.672 409C566.406 409 593.099 409.391 618.75 410.172C619.792 407.828 619.792 404.768 618.75 400.992C575.521 398.388 553.776 392.138 553.516 382.242C552.083 349.951 551.367 311.279 551.367 266.227C551.367 220.914 552.083 182.112 553.516 149.82C553.776 139.924 575.521 133.674 618.75 131.07C620.052 127.815 620.052 124.755 618.75 121.891C584.505 122.932 557.812 123.453 538.672 123.453C522.656 123.453 500 122.932 470.703 121.891C469.922 125.016 469.922 128.076 470.703 131.07C500.521 133.935 515.56 140.185 515.82 149.82C516.602 173.779 517.253 209.911 517.773 258.219C493.815 259 471.159 259.391 449.805 259.391C414.128 259.391 388.281 259.13 372.266 258.609C372.266 214.859 373.047 178.596 374.609 149.82C374.87 139.924 396.615 133.674 439.844 131.07C440.625 128.596 440.625 125.536 439.844 121.891C405.729 122.932 379.036 123.453 359.766 123.453C343.88 123.453 321.224 122.932 291.797 121.891C290.755 124.234 290.755 127.294 291.797 131.07C321.745 133.935 336.849 140.185 337.109 149.82C338.411 180.419 339.062 216.812 339.062 259C339.062 300.276 338.281 341.357 336.719 382.242C336.458 391.878 321.354 398.128 291.406 400.992C290.365 403.076 290.365 406.135 291.406 410.172C313.542 409.391 336.198 409 359.375 409C387.109 409 413.802 409.391 439.453 410.172C440.495 408.089 440.495 405.029 439.453 400.992C396.224 398.388 374.479 392.138 374.219 382.242C372.917 343.049 372.266 306.396 372.266 272.281C404.297 271.63 430.143 271.305 449.805 271.305C471.159 271.305 493.815 271.76 517.773 272.672C517.513 301.708 516.862 338.232 515.82 382.242ZM507.812 382.242C508.854 330.419 509.505 297.737 509.766 284.195C484.245 283.674 464.258 283.414 449.805 283.414C438.607 283.414 428.125 283.479 418.359 283.609C408.724 283.74 403.385 283.805 402.344 283.805C402.344 313.883 402.995 346.565 404.297 381.852C404.297 382.633 404.557 383.414 405.078 384.195C405.599 384.977 406.51 385.628 407.812 386.148C409.115 386.669 410.417 387.255 411.719 387.906C413.151 388.427 414.909 388.948 416.992 389.469C419.206 389.99 421.159 390.445 422.852 390.836C424.544 391.227 426.693 391.617 429.297 392.008C432.031 392.398 434.18 392.724 435.742 392.984C437.435 393.245 439.648 393.505 442.383 393.766C445.247 394.026 447.201 394.286 448.242 394.547C450.326 401.839 449.935 409.846 447.07 418.57C399.023 417.529 369.792 417.008 359.375 417.008C352.474 417.008 327.995 417.529 285.938 418.57C282.682 409.586 282.682 401.188 285.938 393.375C314.193 390.51 328.451 386.669 328.711 381.852C330.273 340.966 331.055 300.016 331.055 259C331.055 217.073 330.404 180.81 329.102 150.211C328.841 145.393 314.323 141.552 285.547 138.688C283.333 130.354 283.594 121.956 286.328 113.492C297.786 113.492 313.281 113.818 332.812 114.469C352.474 115.12 366.146 115.445 373.828 115.445C379.427 115.445 390.234 115.315 406.25 115.055C422.266 114.794 436.133 114.664 447.852 114.664C450.195 122.086 450.326 130.094 448.242 138.688C419.466 141.552 404.948 145.393 404.688 150.211C403.125 186.148 402.344 219.742 402.344 250.992C414.844 251.773 430.664 251.904 449.805 251.383L509.766 250.602C509.245 208.154 508.594 174.69 507.812 150.211C507.552 145.393 493.034 141.552 464.258 138.688C461.914 129.573 462.174 121.174 465.039 113.492C483.919 114.794 509.505 115.445 541.797 115.445C547.917 115.445 560.352 115.315 579.102 115.055C597.982 114.794 613.802 114.664 626.562 114.664C629.036 122.086 629.232 130.094 627.148 138.688C598.242 141.552 583.659 145.393 583.398 150.211C582.096 182.503 581.445 221.174 581.445 266.227C581.445 311.018 582.096 349.56 583.398 381.852C583.659 386.669 598.242 390.51 627.148 393.375C629.232 401.708 628.906 410.107 626.172 418.57C584.115 417.529 559.635 417.008 552.734 417.008C542.318 417.008 513.086 417.529 465.039 418.57C461.914 409.586 461.914 401.188 465.039 393.375C493.555 390.51 507.812 386.799 507.812 382.242ZM686.719 149.82C686.458 145.003 671.94 141.161 643.164 138.297C641.992 134.26 641.406 130.354 641.406 126.578C641.406 122.281 642.253 117.724 643.945 112.906C655.404 112.906 670.898 113.297 690.43 114.078C710.091 114.729 723.763 115.055 731.445 115.055C737.044 115.055 747.852 114.924 763.867 114.664C779.883 114.404 793.75 114.273 805.469 114.273C806.771 118.18 807.422 122.151 807.422 126.188C807.422 129.964 806.901 134 805.859 138.297C777.083 141.161 762.565 145.003 762.305 149.82C761.784 158.935 761.523 206.526 761.523 292.594C761.523 325.406 766.667 349.625 776.953 365.25C787.24 380.875 804.362 389.339 828.32 390.641C853.581 389.078 873.047 379.898 886.719 363.102C900.521 346.174 907.422 322.672 907.422 292.594C907.422 230.745 907.031 184.195 906.25 152.945C905.99 146.565 891.992 141.357 864.258 137.32C863.216 134.195 862.695 131.005 862.695 127.75C862.695 123.844 863.607 119.221 865.43 113.883C902.279 114.924 924.284 115.445 931.445 115.445C945.378 115.445 963.151 115.055 984.766 114.273C986.589 119.872 987.5 123.974 987.5 126.578C987.5 130.615 986.589 134.651 984.766 138.688C957.812 141.292 944.206 146.044 943.945 152.945C942.643 178.076 941.992 224.625 941.992 292.594C941.992 312.906 939.323 331.005 933.984 346.891C928.646 362.646 921.81 375.341 913.477 384.977C905.273 394.612 895.703 402.555 884.766 408.805C873.828 415.055 863.281 419.286 853.125 421.5C842.969 423.844 832.682 425.016 822.266 425.016C801.432 425.016 783.398 423.128 768.164 419.352C753.06 415.706 739.193 409.195 726.562 399.82C714.062 390.445 704.622 376.839 698.242 359C691.862 341.161 688.672 319.026 688.672 292.594C688.672 228.922 688.021 181.331 686.719 149.82ZM732.227 149.43C732.487 139.534 754.232 133.284 797.461 130.68C798.242 128.206 798.242 125.081 797.461 121.305C763.346 122.477 736.719 123.062 717.578 123.062C701.562 123.062 678.841 122.477 649.414 121.305C648.372 123.779 648.372 126.904 649.414 130.68C655.273 131.201 660.091 131.721 663.867 132.242C667.643 132.763 672.266 133.674 677.734 134.977C683.203 136.279 687.37 138.232 690.234 140.836C693.229 143.31 694.727 146.305 694.727 149.82C696.029 191.096 696.68 238.688 696.68 292.594C696.68 317.333 699.674 338.167 705.664 355.094C711.654 371.891 720.573 384.716 732.422 393.57C744.401 402.294 757.422 408.349 771.484 411.734C785.677 415.25 802.604 417.008 822.266 417.008C831.901 417.008 841.471 415.901 850.977 413.688C860.612 411.604 870.508 407.633 880.664 401.773C890.82 395.914 899.74 388.492 907.422 379.508C915.234 370.393 921.615 358.349 926.562 343.375C931.51 328.401 933.984 311.474 933.984 292.594C933.984 230.224 934.635 183.544 935.938 152.555C936.458 141.096 950.846 134.065 979.102 131.461C980.143 129.247 980.143 126.188 979.102 122.281C954.622 123.062 937.174 123.453 926.758 123.453C910.482 123.453 891.927 123.062 871.094 122.281C870.052 124.365 870.052 127.424 871.094 131.461C899.609 134.065 913.997 141.096 914.258 152.555C915.039 183.805 915.43 230.484 915.43 292.594C915.43 326.708 907.292 352.945 891.016 371.305C874.87 389.534 851.693 398.648 821.484 398.648C788.672 398.648 765.43 390.25 751.758 373.453C738.216 356.656 731.445 329.703 731.445 292.594C731.445 214.729 731.706 167.008 732.227 149.43ZM1192.38 381.461C1192.64 386.279 1207.16 390.12 1235.94 392.984C1237.76 400.667 1237.5 408.935 1235.16 417.789C1199.35 417.268 1172.4 417.008 1154.3 417.008C1136.46 417.008 1109.64 417.268 1073.83 417.789C1069.66 410.107 1069.66 401.839 1073.83 392.984C1102.21 390.12 1116.54 386.409 1116.8 381.852C1118.1 345.784 1118.88 313.492 1119.14 284.977L1046.29 158.219C1039.91 147.542 1024.87 141.031 1001.17 138.688C1000.13 134.651 999.609 130.745 999.609 126.969C999.609 122.932 1000.39 118.57 1001.95 113.883C1029.43 114.924 1061.78 115.445 1099.02 115.445C1125.98 115.445 1145.9 115.185 1158.79 114.664C1160.09 119.091 1160.74 122.932 1160.74 126.188C1160.74 129.964 1160.09 134.26 1158.79 139.078C1144.86 140.12 1135.22 141.292 1129.88 142.594C1124.54 143.896 1121.88 145.914 1121.88 148.648C1121.88 149.43 1137.76 178.336 1169.53 235.367C1204.95 176.513 1222.66 146.76 1222.66 146.109C1222.66 144.807 1221.88 143.635 1220.31 142.594C1218.75 141.552 1216.6 140.706 1213.87 140.055C1211.26 139.404 1208.79 138.948 1206.45 138.688C1204.23 138.427 1201.63 138.167 1198.63 137.906C1195.77 137.516 1194.08 137.32 1193.55 137.32C1191.34 130.419 1191.73 122.607 1194.73 113.883C1218.68 114.924 1236.52 115.445 1248.24 115.445C1259.18 115.445 1275.07 114.924 1295.9 113.883C1298.89 122.867 1298.89 131.135 1295.9 138.688C1275.85 140.51 1262.63 146.5 1256.25 156.656L1190.23 262.516C1190.23 315.38 1190.95 355.029 1192.38 381.461ZM1124.8 382.242C1124.41 391.878 1109.31 398.128 1079.49 400.992C1078.19 404.247 1078.19 407.438 1079.49 410.562C1137.04 409.521 1186.39 409.391 1227.54 410.172C1228.58 407.568 1228.58 404.378 1227.54 400.602C1184.31 397.997 1162.57 391.878 1162.3 382.242C1161 344.872 1160.35 315.901 1160.35 295.328L1249.61 152.555C1257.29 140.055 1270.83 132.893 1290.23 131.07C1291.41 128.857 1291.41 125.797 1290.23 121.891C1275.65 122.672 1260.87 123.062 1245.9 123.062C1232.36 123.062 1217.19 122.672 1200.39 121.891C1199.22 123.974 1199.22 127.034 1200.39 131.07C1219.53 133.154 1229.75 137.385 1231.05 143.766C1231.58 146.24 1230.79 149.169 1228.71 152.555L1158.01 269.352L1093.95 155.094C1089.39 146.5 1090.76 140.836 1098.05 138.102C1105.47 135.237 1123.18 132.893 1151.17 131.07C1152.21 127.294 1152.21 124.234 1151.17 121.891C1112.76 123.714 1064.84 123.714 1007.42 121.891C1006.38 124.234 1006.38 127.294 1007.42 131.07C1030.47 133.154 1045.83 141.161 1053.52 155.094L1127.15 283.414C1126.89 314.013 1126.11 346.956 1124.8 382.242Z" fill="#28312D"/>
</g>
<defs>
<clipPath id="clip0_612_2">
<rect width="1311" height="528" fill="white"/>
</clipPath>
</defs>
</svg>
