<svg width="155" height="39" viewBox="0 0 155 39" fill="none" xmlns="http://www.w3.org/2000/svg">
<path d="M13.8906 0.8125C16.125 0.8125 18.1797 1.125 20.0547 1.75C21.9297 2.375 23.6172 2.78125 25.1172 2.96875C24.2891 5.875 24.2578 9.00781 25.0234 12.3672C24.2266 13.0391 23.3125 13.4297 22.2812 13.5391C22.1562 13.2422 21.9297 12.625 21.6016 11.6875C21.2891 10.7344 20.9844 9.95312 20.6875 9.34375C20.4062 8.73438 20.0078 8.03906 19.4922 7.25781C18.9922 6.47656 18.3203 5.85938 17.4766 5.40625C16.6484 4.9375 15.6953 4.61719 14.6172 4.44531C13.0391 4.58594 11.8203 5.07031 10.9609 5.89844C10.1016 6.72656 9.67188 7.79688 9.67188 9.10938C9.67188 10.4531 10.0156 11.5625 10.7031 12.4375C11.3906 13.2969 12.2812 13.9453 13.375 14.3828C14.4844 14.8047 15.7031 15.1797 17.0312 15.5078C18.3594 15.8203 19.6797 16.2109 20.9922 16.6797C22.3047 17.1328 23.5078 17.7344 24.6016 18.4844C25.7109 19.2188 26.6094 20.3203 27.2969 21.7891C27.9844 23.2578 28.3281 25.0469 28.3281 27.1562C28.3281 29.7188 27.5859 31.9219 26.1016 33.7656C24.6172 35.6094 22.8672 36.9297 20.8516 37.7266C18.8359 38.5234 16.7734 38.9219 14.6641 38.9219C10.0234 38.9219 5.42969 37.8984 0.882812 35.8516C0.976562 33.8359 1.02344 32.6016 1.02344 32.1484C1.02344 29.6172 0.78125 26.8984 0.296875 23.9922C1.70312 23.3203 3.27344 23.2891 5.00781 23.8984C5.58594 27.4453 6.70312 30.1641 8.35938 32.0547C10.0312 33.9453 11.8594 35 13.8438 35.2188C15.7031 35.0938 17.1328 34.4922 18.1328 33.4141C19.1484 32.3203 19.6562 30.9375 19.6562 29.2656C19.6562 27.8594 19.3281 26.6719 18.6719 25.7031C18.0156 24.7188 17.1484 23.9609 16.0703 23.4297C14.9922 22.8828 13.8203 22.3906 12.5547 21.9531C11.3047 21.5156 10.0391 21.0547 8.75781 20.5703C7.47656 20.0703 6.29688 19.4766 5.21875 18.7891C4.15625 18.1016 3.29688 17.1406 2.64062 15.9062C1.98438 14.6719 1.65625 13.1719 1.65625 11.4062C1.65625 9.8125 1.90625 8.38281 2.40625 7.11719C2.92188 5.85156 3.58594 4.83594 4.39844 4.07031C5.22656 3.30469 6.1875 2.66406 7.28125 2.14844C8.39062 1.63281 9.48438 1.28125 10.5625 1.09375C11.6562 0.90625 12.7656 0.8125 13.8906 0.8125ZM13.8906 1.77344C12.5781 1.77344 11.3047 1.92969 10.0703 2.24219C8.83594 2.53906 7.63281 3.03125 6.46094 3.71875C5.30469 4.40625 4.375 5.41406 3.67188 6.74219C2.96875 8.07031 2.61719 9.625 2.61719 11.4062C2.61719 12.9844 2.94531 14.3438 3.60156 15.4844C4.25781 16.6094 5.11719 17.4844 6.17969 18.1094C7.25781 18.7344 8.4375 19.2891 9.71875 19.7734C11 20.2422 12.2656 20.7188 13.5156 21.2031C14.7812 21.6875 15.9531 22.2344 17.0312 22.8438C18.1094 23.4531 18.9766 24.3047 19.6328 25.3984C20.2891 26.4766 20.6172 27.7656 20.6172 29.2656C20.6172 31.3438 19.9531 33.0234 18.625 34.3047C17.2969 35.5859 15.4141 36.2266 12.9766 36.2266C10.6328 36.2266 8.45312 35.25 6.4375 33.2969C4.42188 31.3438 3.09375 28.4219 2.45312 24.5312C2.14062 24.3281 1.77344 24.3281 1.35156 24.5312C1.77344 26.9844 1.98438 29.5234 1.98438 32.1484C1.98438 32.8828 1.95312 33.9219 1.89062 35.2656C5.76562 37.0625 9.46094 37.9609 12.9766 37.9609C15.8828 37.9609 18.5703 37.1016 21.0391 35.3828C23.5078 33.6484 24.7422 31.2266 24.7422 28.1172C24.7422 26.3516 24.3984 24.8594 23.7109 23.6406C23.0234 22.4062 22.125 21.4453 21.0156 20.7578C19.9062 20.0703 18.6875 19.4766 17.3594 18.9766C16.0312 18.4766 14.7109 18.0078 13.3984 17.5703C12.0859 17.1172 10.875 16.6172 9.76562 16.0703C8.67188 15.5234 7.78125 14.75 7.09375 13.75C6.40625 12.7344 6.0625 11.5078 6.0625 10.0703C6.0625 8.05469 6.74219 6.44531 8.10156 5.24219C9.46094 4.03906 11.3906 3.4375 13.8906 3.4375C18.2344 3.4375 21.2266 6.44531 22.8672 12.4609C23.3516 12.5391 23.6875 12.4297 23.875 12.1328C23.3594 8.32031 22.2266 5.64062 20.4766 4.09375C18.7422 2.54688 16.5469 1.77344 13.8906 1.77344ZM59.8984 33.7891C59.8984 34.9453 58.0938 35.6953 54.4844 36.0391C54.3594 36.2891 54.3594 36.6562 54.4844 37.1406C57.1406 37.0469 59.8594 37 62.6406 37C65.9688 37 69.1719 37.0469 72.25 37.1406C72.375 36.8594 72.375 36.4922 72.25 36.0391C67.0625 35.7266 64.4531 34.9766 64.4219 33.7891C64.25 29.9141 64.1641 25.2734 64.1641 19.8672C64.1641 14.4297 64.25 9.77344 64.4219 5.89844C64.4531 4.71094 67.0625 3.96094 72.25 3.64844C72.4062 3.25781 72.4062 2.89063 72.25 2.54688C68.1406 2.67187 64.9375 2.73438 62.6406 2.73438C60.7188 2.73438 58 2.67187 54.4844 2.54688C54.3906 2.92188 54.3906 3.28906 54.4844 3.64844C58.0625 3.99219 59.8672 4.74219 59.8984 5.89844C59.9922 8.77344 60.0703 13.1094 60.1328 18.9062C57.2578 19 54.5391 19.0469 51.9766 19.0469C47.6953 19.0469 44.5938 19.0156 42.6719 18.9531C42.6719 13.7031 42.7656 9.35156 42.9531 5.89844C42.9844 4.71094 45.5938 3.96094 50.7812 3.64844C50.875 3.35156 50.875 2.98438 50.7812 2.54688C46.6875 2.67187 43.4844 2.73438 41.1719 2.73438C39.2656 2.73438 36.5469 2.67187 33.0156 2.54688C32.8906 2.82812 32.8906 3.19531 33.0156 3.64844C36.6094 3.99219 38.4219 4.74219 38.4531 5.89844C38.6094 9.57031 38.6875 13.9375 38.6875 19C38.6875 23.9531 38.5938 28.8828 38.4062 33.7891C38.375 34.9453 36.5625 35.6953 32.9688 36.0391C32.8438 36.2891 32.8438 36.6562 32.9688 37.1406C35.625 37.0469 38.3438 37 41.125 37C44.4531 37 47.6562 37.0469 50.7344 37.1406C50.8594 36.8906 50.8594 36.5234 50.7344 36.0391C45.5469 35.7266 42.9375 34.9766 42.9062 33.7891C42.75 29.0859 42.6719 24.6875 42.6719 20.5938C46.5156 20.5156 49.6172 20.4766 51.9766 20.4766C54.5391 20.4766 57.2578 20.5312 60.1328 20.6406C60.1016 24.125 60.0234 28.5078 59.8984 33.7891ZM58.9375 33.7891C59.0625 27.5703 59.1406 23.6484 59.1719 22.0234C56.1094 21.9609 53.7109 21.9297 51.9766 21.9297C50.6328 21.9297 49.375 21.9375 48.2031 21.9531C47.0469 21.9688 46.4062 21.9766 46.2812 21.9766C46.2812 25.5859 46.3594 29.5078 46.5156 33.7422C46.5156 33.8359 46.5469 33.9297 46.6094 34.0234C46.6719 34.1172 46.7812 34.1953 46.9375 34.2578C47.0938 34.3203 47.25 34.3906 47.4062 34.4688C47.5781 34.5312 47.7891 34.5938 48.0391 34.6562C48.3047 34.7188 48.5391 34.7734 48.7422 34.8203C48.9453 34.8672 49.2031 34.9141 49.5156 34.9609C49.8438 35.0078 50.1016 35.0469 50.2891 35.0781C50.4922 35.1094 50.7578 35.1406 51.0859 35.1719C51.4297 35.2031 51.6641 35.2344 51.7891 35.2656C52.0391 36.1406 51.9922 37.1016 51.6484 38.1484C45.8828 38.0234 42.375 37.9609 41.125 37.9609C40.2969 37.9609 37.3594 38.0234 32.3125 38.1484C31.9219 37.0703 31.9219 36.0625 32.3125 35.125C35.7031 34.7812 37.4141 34.3203 37.4453 33.7422C37.6328 28.8359 37.7266 23.9219 37.7266 19C37.7266 13.9688 37.6484 9.61719 37.4922 5.94531C37.4609 5.36719 35.7188 4.90625 32.2656 4.5625C32 3.5625 32.0312 2.55469 32.3594 1.53906C33.7344 1.53906 35.5938 1.57813 37.9375 1.65625C40.2969 1.73437 41.9375 1.77344 42.8594 1.77344C43.5312 1.77344 44.8281 1.75781 46.75 1.72656C48.6719 1.69531 50.3359 1.67969 51.7422 1.67969C52.0234 2.57031 52.0391 3.53125 51.7891 4.5625C48.3359 4.90625 46.5938 5.36719 46.5625 5.94531C46.375 10.2578 46.2812 14.2891 46.2812 18.0391C47.7812 18.1328 49.6797 18.1484 51.9766 18.0859L59.1719 17.9922C59.1094 12.8984 59.0312 8.88281 58.9375 5.94531C58.9062 5.36719 57.1641 4.90625 53.7109 4.5625C53.4297 3.46875 53.4609 2.46094 53.8047 1.53906C56.0703 1.69531 59.1406 1.77344 63.0156 1.77344C63.75 1.77344 65.2422 1.75781 67.4922 1.72656C69.7578 1.69531 71.6562 1.67969 73.1875 1.67969C73.4844 2.57031 73.5078 3.53125 73.2578 4.5625C69.7891 4.90625 68.0391 5.36719 68.0078 5.94531C67.8516 9.82031 67.7734 14.4609 67.7734 19.8672C67.7734 25.2422 67.8516 29.8672 68.0078 33.7422C68.0391 34.3203 69.7891 34.7812 73.2578 35.125C73.5078 36.125 73.4688 37.1328 73.1406 38.1484C68.0938 38.0234 65.1562 37.9609 64.3281 37.9609C63.0781 37.9609 59.5703 38.0234 53.8047 38.1484C53.4297 37.0703 53.4297 36.0625 53.8047 35.125C57.2266 34.7812 58.9375 34.3359 58.9375 33.7891ZM80.4062 5.89844C80.375 5.32031 78.6328 4.85938 75.1797 4.51562C75.0391 4.03125 74.9688 3.5625 74.9688 3.10938C74.9688 2.59375 75.0703 2.04688 75.2734 1.46875C76.6484 1.46875 78.5078 1.51562 80.8516 1.60938C83.2109 1.6875 84.8516 1.72656 85.7734 1.72656C86.4453 1.72656 87.7422 1.71094 89.6641 1.67969C91.5859 1.64844 93.25 1.63281 94.6562 1.63281C94.8125 2.10156 94.8906 2.57812 94.8906 3.0625C94.8906 3.51562 94.8281 4 94.7031 4.51562C91.25 4.85938 89.5078 5.32031 89.4766 5.89844C89.4141 6.99219 89.3828 12.7031 89.3828 23.0312C89.3828 26.9688 90 29.875 91.2344 31.75C92.4688 33.625 94.5234 34.6406 97.3984 34.7969C100.43 34.6094 102.766 33.5078 104.406 31.4922C106.062 29.4609 106.891 26.6406 106.891 23.0312C106.891 15.6094 106.844 10.0234 106.75 6.27344C106.719 5.50781 105.039 4.88281 101.711 4.39844C101.586 4.02344 101.523 3.64063 101.523 3.25C101.523 2.78125 101.633 2.22656 101.852 1.58594C106.273 1.71094 108.914 1.77344 109.773 1.77344C111.445 1.77344 113.578 1.72656 116.172 1.63281C116.391 2.30469 116.5 2.79688 116.5 3.10938C116.5 3.59375 116.391 4.07812 116.172 4.5625C112.938 4.875 111.305 5.44531 111.273 6.27344C111.117 9.28906 111.039 14.875 111.039 23.0312C111.039 25.4688 110.719 27.6406 110.078 29.5469C109.438 31.4375 108.617 32.9609 107.617 34.1172C106.633 35.2734 105.484 36.2266 104.172 36.9766C102.859 37.7266 101.594 38.2344 100.375 38.5C99.1562 38.7812 97.9219 38.9219 96.6719 38.9219C94.1719 38.9219 92.0078 38.6953 90.1797 38.2422C88.3672 37.8047 86.7031 37.0234 85.1875 35.8984C83.6875 34.7734 82.5547 33.1406 81.7891 31C81.0234 28.8594 80.6406 26.2031 80.6406 23.0312C80.6406 15.3906 80.5625 9.67969 80.4062 5.89844ZM85.8672 5.85156C85.8984 4.66406 88.5078 3.91406 93.6953 3.60156C93.7891 3.30469 93.7891 2.92969 93.6953 2.47656C89.6016 2.61719 86.4062 2.6875 84.1094 2.6875C82.1875 2.6875 79.4609 2.61719 75.9297 2.47656C75.8047 2.77344 75.8047 3.14844 75.9297 3.60156C76.6328 3.66406 77.2109 3.72656 77.6641 3.78906C78.1172 3.85156 78.6719 3.96094 79.3281 4.11719C79.9844 4.27344 80.4844 4.50781 80.8281 4.82031C81.1875 5.11719 81.3672 5.47656 81.3672 5.89844C81.5234 10.8516 81.6016 16.5625 81.6016 23.0312C81.6016 26 81.9609 28.5 82.6797 30.5312C83.3984 32.5469 84.4688 34.0859 85.8906 35.1484C87.3281 36.1953 88.8906 36.9219 90.5781 37.3281C92.2812 37.75 94.3125 37.9609 96.6719 37.9609C97.8281 37.9609 98.9766 37.8281 100.117 37.5625C101.273 37.3125 102.461 36.8359 103.68 36.1328C104.898 35.4297 105.969 34.5391 106.891 33.4609C107.828 32.3672 108.594 30.9219 109.188 29.125C109.781 27.3281 110.078 25.2969 110.078 23.0312C110.078 15.5469 110.156 9.94531 110.312 6.22656C110.375 4.85156 112.102 4.00781 115.492 3.69531C115.617 3.42969 115.617 3.0625 115.492 2.59375C112.555 2.6875 110.461 2.73438 109.211 2.73438C107.258 2.73438 105.031 2.6875 102.531 2.59375C102.406 2.84375 102.406 3.21094 102.531 3.69531C105.953 4.00781 107.68 4.85156 107.711 6.22656C107.805 9.97656 107.852 15.5781 107.852 23.0312C107.852 27.125 106.875 30.2734 104.922 32.4766C102.984 34.6641 100.203 35.7578 96.5781 35.7578C92.6406 35.7578 89.8516 34.75 88.2109 32.7344C86.5859 30.7188 85.7734 27.4844 85.7734 23.0312C85.7734 13.6875 85.8047 7.96094 85.8672 5.85156Z" fill="#28312D"/>
<path d="M141.086 33.6953C141.117 34.2734 142.859 34.7344 146.312 35.0781C146.531 36 146.5 36.9922 146.219 38.0547C141.922 37.9922 138.688 37.9609 136.516 37.9609C134.375 37.9609 131.156 37.9922 126.859 38.0547C126.359 37.1328 126.359 36.1406 126.859 35.0781C130.266 34.7344 131.984 34.2891 132.016 33.7422C132.172 29.4141 132.266 25.5391 132.297 22.1172L123.555 6.90625C122.789 5.625 120.984 4.84375 118.141 4.5625C118.016 4.07812 117.953 3.60937 117.953 3.15625C117.953 2.67187 118.047 2.14844 118.234 1.58594C121.531 1.71094 125.414 1.77344 129.883 1.77344C133.117 1.77344 135.508 1.74219 137.055 1.67969C137.211 2.21094 137.289 2.67187 137.289 3.0625C137.289 3.51562 137.211 4.03125 137.055 4.60938C135.383 4.73438 134.227 4.875 133.586 5.03125C132.945 5.1875 132.625 5.42969 132.625 5.75781C132.625 5.85156 134.531 9.32031 138.344 16.1641C142.594 9.10156 144.719 5.53125 144.719 5.45312C144.719 5.29688 144.625 5.15625 144.438 5.03125C144.25 4.90625 143.992 4.80469 143.664 4.72656C143.352 4.64844 143.055 4.59375 142.773 4.5625C142.508 4.53125 142.195 4.5 141.836 4.46875C141.492 4.42188 141.289 4.39844 141.227 4.39844C140.961 3.57031 141.008 2.63281 141.367 1.58594C144.242 1.71094 146.383 1.77344 147.789 1.77344C149.102 1.77344 151.008 1.71094 153.508 1.58594C153.867 2.66406 153.867 3.65625 153.508 4.5625C151.102 4.78125 149.516 5.5 148.75 6.71875L140.828 19.4219C140.828 25.7656 140.914 30.5234 141.086 33.6953ZM132.977 33.7891C132.93 34.9453 131.117 35.6953 127.539 36.0391C127.383 36.4297 127.383 36.8125 127.539 37.1875C134.445 37.0625 140.367 37.0469 145.305 37.1406C145.43 36.8281 145.43 36.4453 145.305 35.9922C140.117 35.6797 137.508 34.9453 137.477 33.7891C137.32 29.3047 137.242 25.8281 137.242 23.3594L147.953 6.22656C148.875 4.72656 150.5 3.86719 152.828 3.64844C152.969 3.38281 152.969 3.01562 152.828 2.54688C151.078 2.64062 149.305 2.6875 147.508 2.6875C145.883 2.6875 144.062 2.64062 142.047 2.54688C141.906 2.79688 141.906 3.16406 142.047 3.64844C144.344 3.89844 145.57 4.40625 145.727 5.17188C145.789 5.46875 145.695 5.82031 145.445 6.22656L136.961 20.2422L129.273 6.53125C128.727 5.5 128.891 4.82031 129.766 4.49219C130.656 4.14844 132.781 3.86719 136.141 3.64844C136.266 3.19531 136.266 2.82812 136.141 2.54688C131.531 2.76562 125.781 2.76562 118.891 2.54688C118.766 2.82812 118.766 3.19531 118.891 3.64844C121.656 3.89844 123.5 4.85938 124.422 6.53125L133.258 21.9297C133.227 25.6016 133.133 29.5547 132.977 33.7891Z" fill="#637560"/>
</svg>
