{
  "asset": {
    "version": "2.0",
    "generator": "THREE.GLTFExporter"
  },
  "scenes": [
    {
      "nodes": [
        0
      ]
    }
  ],
  "scene": 0,
  "nodes": [
    {
      "children": [
        1,
        5,
        6,
        7,
        8,
        9
      ],
      "matrix": [
        0.01,
        0,
        0,
        0,
        0,
        0.01,
        0,
        0,
        0,
        0,
        0.01,
        0,
        0,
        0,
        0,
        1
      ]
    },
    {
      "matrix": [
        1,
        0,
        0,
        0,
        0,
        1,
        0,
        0,
        0,
        0,
        1,
        0,
        247.01289404806275,
        57.90103865090569,
        225.98148136881355,
        1
      ],
      "name": "Text 3",
      "mesh": 0
    },
    {
      "matrix": [
        3.8089676400464287,
        0,
        0,
        0,
        0,
        3.8089676400464287,
        0,
        0,
        0,
        0,
        3.8089676400464287,
        0,
        -2.9770459047308675,
        55.127455359979166,
        -10.478790791671422,
        1
      ],
      "name": "tophat",
      "mesh": 1
    },
    {
      "matrix": [
        3.153002683535792,
        0,
        0,
        0,
        0,
        2.43408887722034,
        0,
        0,
        0,
        0,
        3.153002683535792,
        0,
        -2.787408246221176,
        16.451520765811445,
        -10.478790791671429,
        1
      ],
      "name": "colorpart",
      "mesh": 2
    },
    {
      "matrix": [
        3.7777222361485885,
        0,
        0,
        0,
        0,
        0.30894303731104517,
        0.03662089445735643,
        0,
        0,
        -0.44468317934451745,
        3.751458671436959,
        0,
        -3.4197890838596408,
        -166.58814891508078,
        -9.812056508172645,
        1
      ],
      "name": "base",
      "mesh": 3
    },
    {
      "matrix": [
        0.13898883536382456,
        0.00011400845717883148,
        0,
        0,
        -0.00011661836260226543,
        0.1421705968242381,
        0,
        0,
        0,
        0,
        0.13898888212271007,
        0,
        -184.6786656856316,
        179.02448573411007,
        257.8680758546161,
        1
      ],
      "name": "object_tophat",
      "children": [
        2,
        3,
        4
      ]
    },
    {
      "matrix": [
        0.5249264705438564,
        -0.43297934474162847,
        -0.7327899341212869,
        0,
        0.6363086301974155,
        0.7714345903161777,
        0,
        0,
        0.5652995026166738,
        -0.4662805592031704,
        0.680454930506437,
        0,
        0,
        0,
        0,
        1
      ],
      "name": "Light Main",
      "extensions": {
        "KHR_lights_punctual": {
          "light": 0
        }
      }
    },
    {
      "matrix": [
        0.19510680503180866,
        -0.3578366664398443,
        -0.9131737265063529,
        0,
        -0.8779748072229228,
        -0.4787068391843504,
        0,
        0,
        -0.43714250824205064,
        0.8017435264904531,
        -0.4075705401749501,
        0,
        0,
        0,
        0,
        1
      ],
      "name": "Key Light",
      "extensions": {
        "KHR_lights_punctual": {
          "light": 1
        }
      }
    },
    {
      "matrix": [
        0.8800734647133023,
        2.0159460031865528e-8,
        -0.4748375477018677,
        0,
        -0.13832365675092134,
        0.9566295323147725,
        -0.25637180790069886,
        0,
        0.454243616015214,
        0.2913072911947436,
        0.8419042697398581,
        0,
        792.5624376293089,
        434.3319094451334,
        1293.0684220603969,
        1
      ],
      "camera": 0
    },
    {
      "matrix": [
        1,
        0,
        0,
        0,
        0,
        1,
        0,
        0,
        0,
        0,
        1,
        0,
        0,
        1,
        0,
        1
      ],
      "name": "Default Ambient Light"
    }
  ],
  "bufferViews": [
    {
      "buffer": 0,
      "byteOffset": 0,
      "byteLength": 74448,
      "target": 34962,
      "byteStride": 12
    },
    {
      "buffer": 0,
      "byteOffset": 74448,
      "byteLength": 74448,
      "target": 34962,
      "byteStride": 12
    },
    {
      "buffer": 0,
      "byteOffset": 148896,
      "byteLength": 49632,
      "target": 34962,
      "byteStride": 8
    },
    {
      "buffer": 0,
      "byteOffset": 198528,
      "byteLength": 53088,
      "target": 34963
    },
    {
      "buffer": 0,
      "byteOffset": 251616,
      "byteLength": 4224,
      "target": 34962,
      "byteStride": 12
    },
    {
      "buffer": 0,
      "byteOffset": 255840,
      "byteLength": 4224,
      "target": 34962,
      "byteStride": 12
    },
    {
      "buffer": 0,
      "byteOffset": 260064,
      "byteLength": 1920,
      "target": 34963
    },
    {
      "buffer": 0,
      "byteOffset": 261984,
      "byteLength": 2112,
      "target": 34962,
      "byteStride": 12
    },
    {
      "buffer": 0,
      "byteOffset": 264096,
      "byteLength": 2112,
      "target": 34962,
      "byteStride": 12
    },
    {
      "buffer": 0,
      "byteOffset": 266208,
      "byteLength": 960,
      "target": 34963
    },
    {
      "buffer": 0,
      "byteOffset": 267168,
      "byteLength": 13824,
      "target": 34962,
      "byteStride": 12
    },
    {
      "buffer": 0,
      "byteOffset": 280992,
      "byteLength": 13824,
      "target": 34962,
      "byteStride": 12
    },
    {
      "buffer": 0,
      "byteOffset": 294816,
      "byteLength": 6912,
      "target": 34963
    }
  ],
  "buffers": [
    {
      "byteLength": 301728,
      "uri": "data:application/octet-stream;base64,"
    }
  ],
  "accessors": [
    {
      "bufferView": 0,
      "componentType": 5126,
      "count": 6204,
      "max": [
        497.0499572753906,
        95.04020690917969,
        55
      ],
      "min": [
        -494.04998779296875,
        -53.35979461669922,
        0
      ],
      "type": "VEC3"
    },
    {
      "bufferView": 1,
      "componentType": 5126,
      "count": 6204,
      "max": [
        1,
        1,
        1
      ],
      "min": [
        -1,
        -1,
        -1
      ],
      "type": "VEC3"
    },
    {
      "bufferView": 2,
      "componentType": 5126,
      "count": 6204,
      "max": [
        1,
        1
      ],
      "min": [
        0,
        0
      ],
      "type": "VEC2"
    },
    {
      "bufferView": 3,
      "componentType": 5123,
      "count": 26544,
      "max": [
        6203
      ],
      "min": [
        0
      ],
      "type": "SCALAR"
    },
    {
      "bufferView": 4,
      "componentType": 5126,
      "count": 352,
      "max": [
        34.407352447509766,
        44.5,
        34.574283599853516
      ],
      "min": [
        -34.407352447509766,
        -44.5,
        -34.574283599853516
      ],
      "type": "VEC3"
    },
    {
      "bufferView": 5,
      "componentType": 5126,
      "count": 352,
      "max": [
        0.9992623329162598,
        1,
        0.9992623329162598
      ],
      "min": [
        -0.9992623329162598,
        -1,
        -0.9992623329162598
      ],
      "type": "VEC3"
    },
    {
      "bufferView": 6,
      "componentType": 5125,
      "count": 480,
      "max": [
        351
      ],
      "min": [
        0
      ],
      "type": "SCALAR"
    },
    {
      "bufferView": 7,
      "componentType": 5126,
      "count": 176,
      "max": [
        33,
        -40.050743103027344,
        33
      ],
      "min": [
        -33,
        -67.87499237060547,
        -33
      ],
      "type": "VEC3"
    },
    {
      "bufferView": 8,
      "componentType": 5126,
      "count": 176,
      "max": [
        0.99868243932724,
        0,
        0.9986326694488525
      ],
      "min": [
        -0.99868243932724,
        -1,
        -0.9986326694488525
      ],
      "type": "VEC3"
    },
    {
      "bufferView": 9,
      "componentType": 5125,
      "count": 240,
      "max": [
        175
      ],
      "min": [
        0
      ],
      "type": "SCALAR"
    },
    {
      "bufferView": 10,
      "componentType": 5126,
      "count": 1152,
      "max": [
        51.65716552734375,
        198.45884704589844,
        46.74696350097656
      ],
      "min": [
        -51.372894287109375,
        -66.63370513916016,
        -45.04013442993164
      ],
      "type": "VEC3"
    },
    {
      "bufferView": 11,
      "componentType": 5126,
      "count": 1152,
      "max": [
        0.994800865650177,
        0.9341722130775452,
        0.9982467889785767
      ],
      "min": [
        -0.997485876083374,
        -0.9696718454360962,
        -0.9972852468490601
      ],
      "type": "VEC3"
    },
    {
      "bufferView": 12,
      "componentType": 5125,
      "count": 1728,
      "max": [
        1151
      ],
      "min": [
        0
      ],
      "type": "SCALAR"
    }
  ],
  "meshes": [
    {
      "primitives": [
        {
          "mode": 4,
          "attributes": {
            "POSITION": 0,
            "NORMAL": 1,
            "TEXCOORD_0": 2
          },
          "extras": {
            "parameters": {
              "type": "TextGeometry",
              "width": 1088.0257880961256,
              "height": 197.7195881457519,
              "depth": 55,
              "horizontalAlign": 3,
              "verticalAlign": 3,
              "fontSize": 200,
              "lineHeight": 1.2,
              "letterSpacing": 0,
              "text": "SHUYUAN",
              "textTransform": 1,
              "font": "Public Sans_700",
              "extrudeBevelSize": 1,
              "extrudeBevelSegments": 2
            },
            "type": "TextGeometry"
          },
          "indices": 3
        }
      ]
    },
    {
      "primitives": [
        {
          "mode": 4,
          "attributes": {
            "POSITION": 4,
            "NORMAL": 5
          },
          "extras": {
            "type": "SubdivGeometry",
            "parameters": {
              "width": 68.81470489501953,
              "height": 89,
              "depth": 69.14856719970703
            }
          },
          "indices": 6
        }
      ]
    },
    {
      "primitives": [
        {
          "mode": 4,
          "attributes": {
            "POSITION": 7,
            "NORMAL": 8
          },
          "extras": {
            "type": "SubdivGeometry",
            "parameters": {
              "width": 66,
              "height": 27.824249267578125,
              "depth": 66
            }
          },
          "indices": 9
        }
      ]
    },
    {
      "primitives": [
        {
          "mode": 4,
          "attributes": {
            "POSITION": 10,
            "NORMAL": 11
          },
          "extras": {
            "type": "SubdivGeometry",
            "parameters": {
              "width": 103.03005981445312,
              "height": 265.0925521850586,
              "depth": 91.7870979309082
            }
          },
          "indices": 12
        }
      ]
    }
  ],
  "extensions": {
    "KHR_lights_punctual": {
      "lights": [
        {
          "name": "Light Main",
          "color": [
            1,
            1,
            1
          ],
          "intensity": 1,
          "type": "directional"
        },
        {
          "name": "Key Light",
          "color": [
            1,
            1,
            1
          ],
          "intensity": 0.2,
          "type": "directional"
        }
      ]
    }
  },
  "cameras": [
    {
      "type": "orthographic",
      "orthographic": {
        "xmag": 8.615,
        "ymag": 5.194999999999999,
        "zfar": 100000,
        "znear": 0
      }
    }
  ],
  "extensionsUsed": [
    "KHR_lights_punctual"
  ]
}