<svg width="19" height="10" viewBox="0 0 19 10" fill="none" xmlns="http://www.w3.org/2000/svg">
<path d="M3.416 9.14C2.95867 9.14 2.492 9.07 2.016 8.93C1.54 8.79 1.29267 8.72 1.274 8.72C1.218 8.72 1.15267 8.748 1.078 8.804C1.00333 8.86 0.966 8.92533 0.966 9H0.644V6.788H0.952C1.05467 7.33867 1.36267 7.79133 1.876 8.146C2.38933 8.49133 2.87467 8.664 3.332 8.664C3.79867 8.664 4.172 8.54267 4.452 8.3C4.74133 8.048 4.886 7.72133 4.886 7.32C4.886 7.18 4.83933 7.04467 4.746 6.914C4.662 6.774 4.522 6.634 4.326 6.494C4.13933 6.34467 3.97133 6.22333 3.822 6.13C3.67267 6.02733 3.45333 5.892 3.164 5.724C2.884 5.556 2.68333 5.43467 2.562 5.36C1.29267 4.576 0.658 3.736 0.658 2.84C0.658 2.28933 0.91 1.79 1.414 1.342C1.918 0.893999 2.48267 0.67 3.108 0.67C3.388 0.67 3.72867 0.74 4.13 0.879999C4.53133 1.02 4.75533 1.09 4.802 1.09C4.914 1.09 4.97 0.996667 4.97 0.809999H5.292L5.432 2.924H5.124C5.068 2.54133 4.816 2.14933 4.368 1.748C3.92 1.34667 3.50467 1.146 3.122 1.146C2.702 1.146 2.38467 1.28133 2.17 1.552C1.95533 1.81333 1.848 2.09333 1.848 2.392C1.848 2.51333 1.89 2.63467 1.974 2.756C2.058 2.868 2.19333 2.994 2.38 3.134C2.56667 3.274 2.73 3.39067 2.87 3.484C3.01 3.568 3.22467 3.694 3.514 3.862C3.80333 4.03 4.004 4.14667 4.116 4.212C4.76 4.604 5.264 5.01 5.628 5.43C5.992 5.85 6.174 6.34933 6.174 6.928C6.174 7.61867 5.894 8.16 5.334 8.552C4.774 8.944 4.13467 9.14 3.416 9.14ZM9.83981 0.809999V1.104C9.40115 1.104 9.13048 1.16 9.02781 1.272L11.1978 5.066L13.4378 1.356C13.3351 1.188 13.0458 1.104 12.5698 1.104V0.809999H14.8658V1.104C14.4085 1.104 14.1425 1.16467 14.0678 1.286L11.5478 5.472V8.426C11.6318 8.61267 11.9258 8.706 12.4298 8.706V9H8.88781V8.706C9.39181 8.706 9.68581 8.61267 9.76981 8.426V5.92L7.17981 1.384C7.06781 1.19733 6.76915 1.104 6.28381 1.104V0.809999H9.83981Z" fill="#4D6359"/>
<path d="M16.1533 7.75586C16.012 7.91081 15.9414 8.10677 15.9414 8.34375C15.9414 8.45768 15.9596 8.56706 15.9961 8.67188C16.0371 8.77214 16.0918 8.861 16.1602 8.93848C16.2285 9.01139 16.306 9.07064 16.3926 9.11621C16.4837 9.16178 16.5817 9.18457 16.6865 9.18457C16.7868 9.18457 16.8802 9.16178 16.9668 9.11621C17.0579 9.07064 17.1377 9.01139 17.2061 8.93848C17.2744 8.861 17.3268 8.77214 17.3633 8.67188C17.4043 8.56706 17.4248 8.45768 17.4248 8.34375C17.4248 8.22982 17.4043 8.12272 17.3633 8.02246C17.3268 7.9222 17.2744 7.83333 17.2061 7.75586C17.1377 7.67839 17.0579 7.61686 16.9668 7.57129C16.8802 7.52572 16.7868 7.50293 16.6865 7.50293C16.4814 7.50293 16.3037 7.58724 16.1533 7.75586ZM16.7822 7.22266C17.8076 7.22266 18.3203 7.59635 18.3203 8.34375C18.3203 9.09115 17.8076 9.46484 16.7822 9.46484C16.6318 9.46484 16.4883 9.43522 16.3516 9.37598C16.2194 9.31673 16.1009 9.23698 15.9961 9.13672C15.8958 9.03646 15.8138 8.91797 15.75 8.78125C15.6908 8.64453 15.6611 8.4987 15.6611 8.34375C15.6611 8.1888 15.6908 8.04297 15.75 7.90625C15.8092 7.76953 15.889 7.65104 15.9893 7.55078C16.0941 7.45052 16.2148 7.37077 16.3516 7.31152C16.4883 7.25228 16.6318 7.22266 16.7822 7.22266Z" fill="#DBA61F"/>
</svg>
